<svg width="73" height="58" viewBox="0 0 73 58" fill="none" xmlns="http://www.w3.org/2000/svg">
<path d="M13.92 32.64C6.688 32.64 1.6 29.312 1.6 24.608H6.08C6.08 26.88 9.312 28.48 13.92 28.48C18.528 28.48 21.76 26.88 21.76 24.608C21.76 17.408 2.24 25.568 2.24 13.44C2.24 8.928 7.072 5.76 13.92 5.76C20.384 5.76 24.96 8.928 24.96 13.44H20.48C20.48 11.392 17.76 9.92 13.92 9.92C9.696 9.92 6.72 11.392 6.72 13.44C6.72 20.512 26.24 12.608 26.24 24.608C26.24 29.312 21.152 32.64 13.92 32.64ZM31.0438 32V6.4H53.4438V10.624H35.5238V19.008H53.4438V23.232H35.5238V32H31.0438ZM58.075 32C58.075 30.88 58.491 29.888 59.323 29.056C59.899 28.48 60.571 28.064 61.147 27.712C61.499 27.488 62.235 27.136 62.235 26.912C62.235 26.688 61.499 26.368 61.147 26.144C60.571 25.792 59.899 25.376 59.323 24.8C58.491 23.968 58.075 22.944 58.075 21.824C58.075 20.704 58.491 19.712 59.323 18.88C59.899 18.304 60.571 17.888 61.147 17.536C61.499 17.312 62.235 16.992 62.235 16.768C62.235 16.544 61.499 16.192 61.147 15.968C60.571 15.616 59.899 15.2 59.323 14.624C58.491 13.792 58.075 12.8 58.075 11.68C58.075 10.56 58.491 9.568 59.323 8.736C59.899 8.128 60.571 7.744 61.147 7.36C61.499 7.136 62.139 6.752 62.235 6.592H66.363C66.363 7.712 65.947 8.704 65.115 9.536C64.571 10.144 63.899 10.528 63.323 10.912C62.939 11.104 62.235 11.456 62.235 11.68C62.235 11.904 62.939 12.224 63.323 12.448C63.899 12.8 64.571 13.216 65.115 13.792C65.947 14.656 66.363 15.648 66.363 16.768C66.363 17.888 65.947 18.88 65.115 19.712C64.571 20.288 63.899 20.704 63.323 21.056C62.939 21.28 62.235 21.6 62.235 21.824C62.235 22.08 62.939 22.4 63.323 22.624C63.899 22.976 64.571 23.392 65.115 23.968C65.947 24.8 66.363 25.792 66.363 26.912C66.363 28.032 65.947 29.024 65.115 29.888C64.571 30.464 63.899 30.848 63.323 31.232L62.235 32H58.075Z" fill="#F21DB9"/>
<path d="M3.48 46.16C1.672 46.16 0.4 45.328 0.4 44.152H1.52C1.52 44.72 2.328 45.12 3.48 45.12C4.632 45.12 5.44 44.72 5.44 44.152C5.44 42.352 0.56 44.392 0.56 41.36C0.56 40.232 1.768 39.44 3.48 39.44C5.096 39.44 6.24 40.232 6.24 41.36H5.12C5.12 40.848 4.44 40.48 3.48 40.48C2.424 40.48 1.68 40.848 1.68 41.36C1.68 43.128 6.56 41.152 6.56 44.152C6.56 45.328 5.288 46.16 3.48 46.16ZM11.0969 46.48C10.5049 46.48 10.0569 46.088 9.89694 45.688C9.40094 45.88 8.86494 45.784 8.48094 45.4C8.15294 45.072 8.02494 44.568 8.16094 44.12C8.16894 44.072 8.18494 44.032 8.20094 43.992L8.08094 43.928C7.66494 43.704 7.40094 43.264 7.40094 42.792C7.40094 42.32 7.66494 41.872 8.08094 41.648C8.12094 41.624 8.16094 41.608 8.20094 41.592C8.18494 41.544 8.16894 41.504 8.16094 41.464C8.02494 41.016 8.14494 40.512 8.48094 40.176C8.88894 39.784 9.44094 39.72 9.88894 39.888L9.93694 39.8C10.1449 39.408 10.5529 39.12 11.0649 39.12C11.5369 39.12 11.9369 39.352 12.1769 39.76C12.2089 39.808 12.2329 39.856 12.2569 39.904C12.7289 39.72 13.2889 39.768 13.7129 40.176C14.0489 40.512 14.1689 41.016 14.0329 41.464C14.0249 41.504 14.0089 41.544 13.9929 41.592C14.0329 41.608 14.0729 41.624 14.1129 41.648C14.5289 41.872 14.7929 42.32 14.7929 42.792C14.7929 43.264 14.5289 43.704 14.1129 43.928L13.9929 43.992C14.0089 44.032 14.0249 44.072 14.0329 44.12C14.1689 44.568 14.0409 45.072 13.7129 45.4C13.3129 45.8 12.7689 45.872 12.2969 45.688C12.2809 45.728 12.2569 45.768 12.2329 45.808C11.9929 46.24 11.5929 46.48 11.0969 46.48ZM8.44094 42.792C8.44094 43.224 9.31294 43.056 9.48094 43.456C9.64894 43.864 8.90494 44.36 9.21694 44.672C9.27294 44.728 9.32894 44.744 9.39294 44.744C9.65694 44.744 10.0009 44.376 10.2969 44.376C10.3449 44.376 10.3849 44.384 10.4249 44.4C10.8329 44.568 10.6569 45.448 11.0969 45.448C11.5369 45.448 11.3609 44.568 11.7689 44.4C11.8089 44.384 11.8489 44.376 11.8969 44.376C12.1929 44.376 12.5369 44.744 12.8009 44.744C12.8649 44.744 12.9209 44.728 12.9769 44.672C13.2889 44.36 12.5449 43.864 12.7129 43.456C12.8809 43.056 13.7529 43.224 13.7529 42.792C13.7529 42.352 12.8809 42.528 12.7129 42.12C12.5449 41.72 13.2889 41.216 12.9769 40.912C12.9209 40.856 12.8649 40.832 12.8009 40.832C12.5369 40.832 12.1929 41.2 11.8969 41.2C11.8489 41.2 11.8089 41.192 11.7689 41.176C11.3609 41.008 11.4649 40.152 11.0649 40.152C10.6409 40.152 10.8329 41.008 10.4249 41.176C10.3849 41.192 10.3449 41.2 10.2969 41.2C10.0009 41.2 9.65694 40.832 9.39294 40.832C9.32894 40.832 9.27294 40.856 9.21694 40.912C8.90494 41.216 9.64894 41.72 9.48094 42.12C9.31294 42.528 8.44094 42.352 8.44094 42.792ZM18.8744 46.2C17.0024 46.2 15.6744 44.792 15.6744 42.8C15.6744 40.808 17.0024 39.4 18.8744 39.4C20.7144 39.4 22.0184 40.48 22.0184 42H20.8584C20.8584 41.104 20.0344 40.464 18.8744 40.464C17.6584 40.464 16.8024 41.432 16.8024 42.8C16.8024 44.168 17.6584 45.136 18.8744 45.136C20.0344 45.136 20.8584 44.496 20.8584 43.6H22.0184C22.0184 45.12 20.7144 46.2 18.8744 46.2ZM23.175 46V39.6H24.295V42.328L27.239 39.6H28.751L26.327 41.856C26.423 42.008 26.479 42.168 26.503 42.352C26.527 42.568 26.487 42.768 26.463 42.944C26.359 43.504 26.471 43.48 27.039 43.528C27.503 43.576 28.031 43.624 28.319 44.024C28.511 44.288 28.567 44.616 28.487 44.992C28.431 45.248 28.327 45.488 28.231 45.696L28.103 46H27.063C27.063 45.76 27.175 45.52 27.287 45.264C27.575 44.632 27.631 44.624 26.943 44.56C26.495 44.52 26.039 44.472 25.751 44.16C25.543 43.936 25.423 43.672 25.399 43.376C25.375 43.152 25.407 42.944 25.439 42.768L25.455 42.672L24.295 43.752V46H23.175ZM29.8313 46V39.6H35.4313V40.656H30.9513V42.752H35.4313V43.808H30.9513V46H29.8313ZM39.7251 46.448C39.4771 46.448 39.2371 46.344 39.0291 46.144C38.7971 45.936 38.6931 45.48 38.1251 45.416C37.9651 45.4 37.7811 45.376 37.6131 45.328C37.3331 45.24 37.1331 45.096 37.0051 44.88C36.8851 44.672 36.8611 44.424 36.9251 44.152C36.9651 43.976 37.2291 43.376 37.2291 43.312C37.2291 43.24 37.2211 43.232 37.0691 43.08C36.8931 42.912 36.5891 42.616 36.5891 42.08C36.5891 41.536 36.8931 41.248 37.0691 41.072C37.2211 40.928 37.2291 40.912 37.2291 40.84C37.2291 40.776 37.2211 40.76 37.0691 40.616C36.8931 40.44 36.5891 40.144 36.5891 39.608H37.6691C37.6691 39.68 38.3091 40.304 38.3091 40.84C38.3091 41.384 38.0051 41.672 37.8211 41.848C37.6691 41.992 37.6691 42.008 37.6691 42.08C37.6691 42.144 37.6691 42.16 37.8211 42.304C38.0051 42.48 38.3091 42.776 38.3091 43.312C38.3091 43.688 38.1011 44.04 38.0051 44.312C38.2931 44.36 38.7011 44.352 39.0211 44.544C39.2531 44.68 39.4131 44.904 39.5571 45.096C39.6051 45.16 39.6691 45.256 39.7251 45.32C39.7811 45.256 39.8451 45.16 39.8931 45.096C40.0371 44.904 40.1971 44.68 40.4371 44.544C40.6771 44.4 40.9571 44.368 41.2051 44.344L41.4451 44.312C41.4211 44.24 41.3891 44.16 41.3571 44.096C41.2611 43.864 41.1411 43.6 41.1411 43.312C41.1411 42.776 41.4451 42.48 41.6291 42.304C41.7811 42.16 41.7811 42.144 41.7811 42.08C41.7811 42.008 41.7811 41.992 41.6291 41.848C41.4451 41.672 41.1411 41.384 41.1411 40.84C41.1411 40.304 41.7811 39.68 41.7811 39.608H42.8611C42.8611 40.144 42.5571 40.44 42.3811 40.616C42.2291 40.76 42.2211 40.776 42.2211 40.84C42.2211 40.912 42.2291 40.928 42.3811 41.072C42.5571 41.248 42.8611 41.536 42.8611 42.08C42.8611 42.616 42.5571 42.912 42.3811 43.08C42.2291 43.232 42.2211 43.24 42.2211 43.312C42.2211 43.376 42.3011 43.56 42.3491 43.664C42.4211 43.824 42.4851 43.976 42.5251 44.152C42.5891 44.424 42.5651 44.672 42.4451 44.88C42.3171 45.096 42.1171 45.24 41.8451 45.328C41.6691 45.376 41.4851 45.4 41.3251 45.416C40.7651 45.48 40.6531 45.936 40.4211 46.144C40.2131 46.344 39.9811 46.448 39.7251 46.448ZM47.1441 46.16C45.3361 46.16 44.0641 45.328 44.0641 44.152H45.1841C45.1841 44.72 45.9921 45.12 47.1441 45.12C48.2961 45.12 49.1041 44.72 49.1041 44.152C49.1041 42.352 44.2241 44.392 44.2241 41.36C44.2241 40.232 45.4321 39.44 47.1441 39.44C48.7601 39.44 49.9041 40.232 49.9041 41.36H48.7841C48.7841 40.848 48.1041 40.48 47.1441 40.48C46.0881 40.48 45.3441 40.848 45.3441 41.36C45.3441 43.128 50.2241 41.152 50.2241 44.152C50.2241 45.328 48.9521 46.16 47.1441 46.16ZM51.425 46C51.425 45.72 51.529 45.472 51.737 45.264C51.881 45.12 52.049 45.016 52.193 44.928C52.281 44.872 52.465 44.784 52.465 44.728C52.465 44.672 52.281 44.592 52.193 44.536C52.049 44.448 51.881 44.344 51.737 44.2C51.529 43.992 51.425 43.736 51.425 43.456C51.425 43.176 51.529 42.928 51.737 42.72C51.881 42.576 52.049 42.472 52.193 42.384C52.281 42.328 52.465 42.248 52.465 42.192C52.465 42.136 52.281 42.048 52.193 41.992C52.049 41.904 51.881 41.8 51.737 41.656C51.529 41.448 51.425 41.2 51.425 40.92C51.425 40.64 51.529 40.392 51.737 40.184C51.881 40.032 52.049 39.936 52.193 39.84C52.281 39.784 52.441 39.688 52.465 39.648H53.497C53.497 39.928 53.393 40.176 53.185 40.384C53.049 40.536 52.881 40.632 52.737 40.728C52.641 40.776 52.465 40.864 52.465 40.92C52.465 40.976 52.641 41.056 52.737 41.112C52.881 41.2 53.049 41.304 53.185 41.448C53.393 41.664 53.497 41.912 53.497 42.192C53.497 42.472 53.393 42.72 53.185 42.928C53.049 43.072 52.881 43.176 52.737 43.264C52.641 43.32 52.465 43.4 52.465 43.456C52.465 43.52 52.641 43.6 52.737 43.656C52.881 43.744 53.049 43.848 53.185 43.992C53.393 44.2 53.497 44.448 53.497 44.728C53.497 45.008 53.393 45.256 53.185 45.472C53.049 45.616 52.881 45.712 52.737 45.808L52.465 46H51.425ZM58.4329 46.48C57.8409 46.48 57.3929 46.088 57.2329 45.688C56.7369 45.88 56.2009 45.784 55.8169 45.4C55.4889 45.072 55.3609 44.568 55.4969 44.12C55.5049 44.072 55.5209 44.032 55.5369 43.992L55.4169 43.928C55.0009 43.704 54.7369 43.264 54.7369 42.792C54.7369 42.32 55.0009 41.872 55.4169 41.648C55.4569 41.624 55.4969 41.608 55.5369 41.592C55.5209 41.544 55.5049 41.504 55.4969 41.464C55.3609 41.016 55.4809 40.512 55.8169 40.176C56.2249 39.784 56.7769 39.72 57.2249 39.888L57.2729 39.8C57.4809 39.408 57.8889 39.12 58.4009 39.12C58.8729 39.12 59.2729 39.352 59.5129 39.76C59.5449 39.808 59.5689 39.856 59.5929 39.904C60.0649 39.72 60.6249 39.768 61.0489 40.176C61.3849 40.512 61.5049 41.016 61.3689 41.464C61.3609 41.504 61.3449 41.544 61.3289 41.592C61.3689 41.608 61.4089 41.624 61.4489 41.648C61.8649 41.872 62.1289 42.32 62.1289 42.792C62.1289 43.264 61.8649 43.704 61.4489 43.928L61.3289 43.992C61.3449 44.032 61.3609 44.072 61.3689 44.12C61.5049 44.568 61.3769 45.072 61.0489 45.4C60.6489 45.8 60.1049 45.872 59.6329 45.688C59.6169 45.728 59.5929 45.768 59.5689 45.808C59.3289 46.24 58.9289 46.48 58.4329 46.48ZM55.7769 42.792C55.7769 43.224 56.6489 43.056 56.8169 43.456C56.9849 43.864 56.2409 44.36 56.5529 44.672C56.6089 44.728 56.6649 44.744 56.7289 44.744C56.9929 44.744 57.3369 44.376 57.6329 44.376C57.6809 44.376 57.7209 44.384 57.7609 44.4C58.1689 44.568 57.9929 45.448 58.4329 45.448C58.8729 45.448 58.6969 44.568 59.1049 44.4C59.1449 44.384 59.1849 44.376 59.2329 44.376C59.5289 44.376 59.8729 44.744 60.1369 44.744C60.2009 44.744 60.2569 44.728 60.3129 44.672C60.6249 44.36 59.8809 43.864 60.0489 43.456C60.2169 43.056 61.0889 43.224 61.0889 42.792C61.0889 42.352 60.2169 42.528 60.0489 42.12C59.8809 41.72 60.6249 41.216 60.3129 40.912C60.2569 40.856 60.2009 40.832 60.1369 40.832C59.8729 40.832 59.5289 41.2 59.2329 41.2C59.1849 41.2 59.1449 41.192 59.1049 41.176C58.6969 41.008 58.8009 40.152 58.4009 40.152C57.9769 40.152 58.1689 41.008 57.7609 41.176C57.7209 41.192 57.6809 41.2 57.6329 41.2C57.3369 41.2 56.9929 40.832 56.7289 40.832C56.6649 40.832 56.6089 40.856 56.5529 40.912C56.2409 41.216 56.9849 41.72 56.8169 42.12C56.6489 42.528 55.7769 42.352 55.7769 42.792ZM63.3703 46V39.6H64.8263L68.2503 44.624V39.6H69.3703V46H67.9143L64.4903 40.976V46H63.3703ZM0.8 56C0.8 55.72 0.904 55.472 1.112 55.264C1.256 55.12 1.424 55.016 1.568 54.928C1.656 54.872 1.84 54.784 1.84 54.728C1.84 54.672 1.656 54.592 1.568 54.536C1.424 54.448 1.256 54.344 1.112 54.2C0.904 53.992 0.8 53.736 0.8 53.456C0.8 53.176 0.904 52.928 1.112 52.72C1.256 52.576 1.424 52.472 1.568 52.384C1.656 52.328 1.84 52.248 1.84 52.192C1.84 52.136 1.656 52.048 1.568 51.992C1.424 51.904 1.256 51.8 1.112 51.656C0.904 51.448 0.8 51.2 0.8 50.92C0.8 50.64 0.904 50.392 1.112 50.184C1.256 50.032 1.424 49.936 1.568 49.84C1.656 49.784 1.816 49.688 1.84 49.648H2.872C2.872 49.928 2.768 50.176 2.56 50.384C2.424 50.536 2.256 50.632 2.112 50.728C2.016 50.776 1.84 50.864 1.84 50.92C1.84 50.976 2.016 51.056 2.112 51.112C2.256 51.2 2.424 51.304 2.56 51.448C2.768 51.664 2.872 51.912 2.872 52.192C2.872 52.472 2.768 52.72 2.56 52.928C2.424 53.072 2.256 53.176 2.112 53.264C2.016 53.32 1.84 53.4 1.84 53.456C1.84 53.52 2.016 53.6 2.112 53.656C2.256 53.744 2.424 53.848 2.56 53.992C2.768 54.2 2.872 54.448 2.872 54.728C2.872 55.008 2.768 55.256 2.56 55.472C2.424 55.616 2.256 55.712 2.112 55.808L1.84 56H0.8ZM4.47188 56V49.6H5.92788L9.35188 54.624V49.6H10.4719V56H9.01588L5.59188 50.976V56H4.47188ZM12.0734 56V49.6H13.5294L16.9534 54.624V49.6H18.0734V56H16.6174L13.1934 50.976V56H12.0734ZM23.011 56.48C22.419 56.48 21.971 56.088 21.811 55.688C21.315 55.88 20.779 55.784 20.395 55.4C20.067 55.072 19.939 54.568 20.075 54.12C20.083 54.072 20.099 54.032 20.115 53.992L19.995 53.928C19.579 53.704 19.315 53.264 19.315 52.792C19.315 52.32 19.579 51.872 19.995 51.648C20.035 51.624 20.075 51.608 20.115 51.592C20.099 51.544 20.083 51.504 20.075 51.464C19.939 51.016 20.059 50.512 20.395 50.176C20.803 49.784 21.355 49.72 21.803 49.888L21.851 49.8C22.059 49.408 22.467 49.12 22.979 49.12C23.451 49.12 23.851 49.352 24.091 49.76C24.123 49.808 24.147 49.856 24.171 49.904C24.643 49.72 25.203 49.768 25.627 50.176C25.963 50.512 26.083 51.016 25.947 51.464C25.939 51.504 25.923 51.544 25.907 51.592C25.947 51.608 25.987 51.624 26.027 51.648C26.443 51.872 26.707 52.32 26.707 52.792C26.707 53.264 26.443 53.704 26.027 53.928L25.907 53.992C25.923 54.032 25.939 54.072 25.947 54.12C26.083 54.568 25.955 55.072 25.627 55.4C25.227 55.8 24.683 55.872 24.211 55.688C24.195 55.728 24.171 55.768 24.147 55.808C23.907 56.24 23.507 56.48 23.011 56.48ZM20.355 52.792C20.355 53.224 21.227 53.056 21.395 53.456C21.563 53.864 20.819 54.36 21.131 54.672C21.187 54.728 21.243 54.744 21.307 54.744C21.571 54.744 21.915 54.376 22.211 54.376C22.259 54.376 22.299 54.384 22.339 54.4C22.747 54.568 22.571 55.448 23.011 55.448C23.451 55.448 23.275 54.568 23.683 54.4C23.723 54.384 23.763 54.376 23.811 54.376C24.107 54.376 24.451 54.744 24.715 54.744C24.779 54.744 24.835 54.728 24.891 54.672C25.203 54.36 24.459 53.864 24.627 53.456C24.795 53.056 25.667 53.224 25.667 52.792C25.667 52.352 24.795 52.528 24.627 52.12C24.459 51.72 25.203 51.216 24.891 50.912C24.835 50.856 24.779 50.832 24.715 50.832C24.451 50.832 24.107 51.2 23.811 51.2C23.763 51.2 23.723 51.192 23.683 51.176C23.275 51.008 23.379 50.152 22.979 50.152C22.555 50.152 22.747 51.008 22.339 51.176C22.299 51.192 22.259 51.2 22.211 51.2C21.915 51.2 21.571 50.832 21.307 50.832C21.243 50.832 21.187 50.856 21.131 50.912C20.819 51.216 21.563 51.72 21.395 52.12C21.227 52.528 20.355 52.352 20.355 52.792ZM30.1084 56L27.2284 49.6H28.4684L30.7084 54.864L32.9484 49.6H34.1884L31.3084 56H30.1084ZM33.4628 56C33.5588 55.528 33.7908 54.864 34.0388 54.44C34.2868 54.016 34.5988 53.648 34.9588 53.328C35.0308 53.272 35.0948 53.224 35.1588 53.168C35.1668 53.008 35.1908 52.832 35.2148 52.648C35.3108 52.08 35.4788 51.528 35.7188 51.008C35.9588 50.48 36.2708 50.04 36.6388 49.6H37.9108L40.7908 56H39.5508L37.1108 50.632C36.9348 50.888 36.7828 51.152 36.6548 51.432C36.4788 51.832 36.3428 52.248 36.2628 52.672C36.5108 52.624 36.7508 52.632 36.9828 52.68C37.4468 52.776 37.8708 53.12 38.0708 53.576C38.2468 53.96 38.2468 54.384 38.0548 54.728C37.8948 55.016 37.6228 55.232 37.2868 55.336C36.9828 55.432 36.6468 55.424 36.3588 55.312C35.9348 55.16 35.5748 54.816 35.3668 54.368C35.2068 54.552 35.0628 54.752 34.9348 54.96C34.7428 55.288 34.6148 55.64 34.5428 56H33.4628ZM36.2388 53.744C36.2468 53.76 36.2468 53.776 36.2548 53.792C36.3348 54.056 36.5108 54.272 36.7108 54.344C36.8708 54.4 37.0788 54.344 37.1428 54.232C37.1908 54.152 37.1588 54.064 37.1348 54C37.0628 53.848 36.9108 53.72 36.7668 53.688C36.6708 53.672 36.4948 53.656 36.2388 53.744ZM42.5244 56V50.656H40.2284V49.6H45.9404V50.656H43.6444V56H42.5244ZM46.8234 56C46.8234 55.72 46.9274 55.472 47.1354 55.264C47.2794 55.12 47.4474 55.016 47.5914 54.928C47.6794 54.872 47.8634 54.784 47.8634 54.728C47.8634 54.672 47.6794 54.592 47.5914 54.536C47.4474 54.448 47.2794 54.344 47.1354 54.2C46.9274 53.992 46.8234 53.736 46.8234 53.456C46.8234 53.176 46.9274 52.928 47.1354 52.72C47.2794 52.576 47.4474 52.472 47.5914 52.384C47.6794 52.328 47.8634 52.248 47.8634 52.192C47.8634 52.136 47.6794 52.048 47.5914 51.992C47.4474 51.904 47.2794 51.8 47.1354 51.656C46.9274 51.448 46.8234 51.2 46.8234 50.92C46.8234 50.64 46.9274 50.392 47.1354 50.184C47.2794 50.032 47.4474 49.936 47.5914 49.84C47.6794 49.784 47.8394 49.688 47.8634 49.648H48.8954C48.8954 49.928 48.7914 50.176 48.5834 50.384C48.4474 50.536 48.2794 50.632 48.1354 50.728C48.0394 50.776 47.8634 50.864 47.8634 50.92C47.8634 50.976 48.0394 51.056 48.1354 51.112C48.2794 51.2 48.4474 51.304 48.5834 51.448C48.7914 51.664 48.8954 51.912 48.8954 52.192C48.8954 52.472 48.7914 52.72 48.5834 52.928C48.4474 53.072 48.2794 53.176 48.1354 53.264C48.0394 53.32 47.8634 53.4 47.8634 53.456C47.8634 53.52 48.0394 53.6 48.1354 53.656C48.2794 53.744 48.4474 53.848 48.5834 53.992C48.7914 54.2 48.8954 54.448 48.8954 54.728C48.8954 55.008 48.7914 55.256 48.5834 55.472C48.4474 55.616 48.2794 55.712 48.1354 55.808L47.8634 56H46.8234ZM53.8313 56.48C53.2393 56.48 52.7913 56.088 52.6313 55.688C52.1353 55.88 51.5993 55.784 51.2153 55.4C50.8873 55.072 50.7593 54.568 50.8953 54.12C50.9033 54.072 50.9193 54.032 50.9353 53.992L50.8153 53.928C50.3993 53.704 50.1353 53.264 50.1353 52.792C50.1353 52.32 50.3993 51.872 50.8153 51.648C50.8553 51.624 50.8953 51.608 50.9353 51.592C50.9193 51.544 50.9033 51.504 50.8953 51.464C50.7593 51.016 50.8793 50.512 51.2153 50.176C51.6233 49.784 52.1753 49.72 52.6233 49.888L52.6713 49.8C52.8793 49.408 53.2873 49.12 53.7993 49.12C54.2713 49.12 54.6713 49.352 54.9113 49.76C54.9433 49.808 54.9673 49.856 54.9913 49.904C55.4633 49.72 56.0233 49.768 56.4473 50.176C56.7833 50.512 56.9033 51.016 56.7673 51.464C56.7593 51.504 56.7433 51.544 56.7273 51.592C56.7673 51.608 56.8073 51.624 56.8473 51.648C57.2633 51.872 57.5273 52.32 57.5273 52.792C57.5273 53.264 57.2633 53.704 56.8473 53.928L56.7273 53.992C56.7433 54.032 56.7593 54.072 56.7673 54.12C56.9033 54.568 56.7753 55.072 56.4473 55.4C56.0473 55.8 55.5033 55.872 55.0313 55.688C55.0153 55.728 54.9913 55.768 54.9673 55.808C54.7273 56.24 54.3273 56.48 53.8313 56.48ZM51.1753 52.792C51.1753 53.224 52.0473 53.056 52.2153 53.456C52.3833 53.864 51.6393 54.36 51.9513 54.672C52.0073 54.728 52.0633 54.744 52.1273 54.744C52.3913 54.744 52.7353 54.376 53.0313 54.376C53.0793 54.376 53.1193 54.384 53.1593 54.4C53.5673 54.568 53.3913 55.448 53.8313 55.448C54.2713 55.448 54.0953 54.568 54.5033 54.4C54.5433 54.384 54.5833 54.376 54.6313 54.376C54.9273 54.376 55.2713 54.744 55.5353 54.744C55.5993 54.744 55.6553 54.728 55.7113 54.672C56.0233 54.36 55.2793 53.864 55.4473 53.456C55.6153 53.056 56.4873 53.224 56.4873 52.792C56.4873 52.352 55.6153 52.528 55.4473 52.12C55.2793 51.72 56.0233 51.216 55.7113 50.912C55.6553 50.856 55.5993 50.832 55.5353 50.832C55.2713 50.832 54.9273 51.2 54.6313 51.2C54.5833 51.2 54.5433 51.192 54.5033 51.176C54.0953 51.008 54.1993 50.152 53.7993 50.152C53.3753 50.152 53.5673 51.008 53.1593 51.176C53.1193 51.192 53.0793 51.2 53.0313 51.2C52.7353 51.2 52.3913 50.832 52.1273 50.832C52.0633 50.832 52.0073 50.856 51.9513 50.912C51.6393 51.216 52.3833 51.72 52.2153 52.12C52.0473 52.528 51.1753 52.352 51.1753 52.792ZM58.7688 56V49.6H60.2248L63.6488 54.624V49.6H64.7688V56H63.3128L59.8888 50.976V56H58.7688ZM69.0503 56.16C67.2423 56.16 65.9703 55.328 65.9703 54.152H67.0903C67.0903 54.72 67.8983 55.12 69.0503 55.12C70.2023 55.12 71.0103 54.72 71.0103 54.152C71.0103 52.352 66.1303 54.392 66.1303 51.36C66.1303 50.232 67.3383 49.44 69.0503 49.44C70.6663 49.44 71.8103 50.232 71.8103 51.36H70.6903C70.6903 50.848 70.0103 50.48 69.0503 50.48C67.9943 50.48 67.2503 50.848 67.2503 51.36C67.2503 53.128 72.1303 51.152 72.1303 54.152C72.1303 55.328 70.8583 56.16 69.0503 56.16Z" fill="#F21DB9"/>
</svg>
